<svg xmlns="http://www.w3.org/2000/svg" width="1100" height="680" viewBox="0 0 1100 680"><rect width="1100" height="680" fill="#ffffff"/><text x="550" y="72" text-anchor="middle" font-family="Arial, sans-serif" font-size="32" font-weight="700" fill="#166534">Components Of Food Chain</text><text x="550" y="108" text-anchor="middle" font-family="Arial, sans-serif" font-size="18" font-weight="600" fill="#334155">Educational Diagram</text><text x="550" y="146" text-anchor="middle" font-family="Arial, sans-serif" font-size="16" fill="#475569">This image explains Components of Food Chain in a simple visual way.</text><line x1="54" y1="188" x2="1046" y2="188" stroke="#bbf7d0" stroke-width="3"/><rect x="40" y="260" width="150" height="160" rx="20" fill="#dcfce7" stroke="#16a34a" stroke-width="2.5"/><circle cx="115" cy="296" r="20" fill="#ffffff" stroke="#16a34a" stroke-width="2"/><text x="115" y="302" text-anchor="middle" font-family="Arial, sans-serif" font-size="16" font-weight="700" fill="#16a34a">1</text><text x="115" y="334" text-anchor="middle" font-family="Arial, sans-serif" font-size="16" font-weight="700" fill="#0f172a">Producer</text><text x="115" y="366" text-anchor="middle" font-family="Arial, sans-serif" font-size="16" font-weight="500" fill="#1f2937">Grass</text><line x1="190" y1="340" x2="202" y2="340" stroke="#16a34a" stroke-width="5" stroke-linecap="round"/><polygon points="202,340 186,332 186,348" fill="#16a34a"/><rect x="212" y="260" width="150" height="160" rx="20" fill="#dbeafe" stroke="#2563eb" stroke-width="2.5"/><circle cx="287" cy="296" r="20" fill="#ffffff" stroke="#2563eb" stroke-width="2"/><text x="287" y="302" text-anchor="middle" font-family="Arial, sans-serif" font-size="16" font-weight="700" fill="#2563eb">2</text><text x="287" y="334" text-anchor="middle" font-family="Arial, sans-serif" font-size="16" font-weight="700" fill="#0f172a">Primary Consumer</text><text x="287" y="366" text-anchor="middle" font-family="Arial, sans-serif" font-size="16" font-weight="500" fill="#1f2937">Grasshopper</text><line x1="362" y1="340" x2="374" y2="340" stroke="#16a34a" stroke-width="5" stroke-linecap="round"/><polygon points="374,340 358,332 358,348" fill="#16a34a"/><rect x="384" y="260" width="150" height="160" rx="20" fill="#fef3c7" stroke="#d97706" stroke-width="2.5"/><circle cx="459" cy="296" r="20" fill="#ffffff" stroke="#d97706" stroke-width="2"/><text x="459" y="302" text-anchor="middle" font-family="Arial, sans-serif" font-size="16" font-weight="700" fill="#d97706">3</text><text x="459" y="334" text-anchor="middle" font-family="Arial, sans-serif" font-size="16" font-weight="700" fill="#0f172a">Secondary Consumer</text><text x="459" y="366" text-anchor="middle" font-family="Arial, sans-serif" font-size="16" font-weight="500" fill="#1f2937">Frog</text><line x1="534" y1="340" x2="546" y2="340" stroke="#16a34a" stroke-width="5" stroke-linecap="round"/><polygon points="546,340 530,332 530,348" fill="#16a34a"/><rect x="556" y="260" width="150" height="160" rx="20" fill="#fae8ff" stroke="#c026d3" stroke-width="2.5"/><circle cx="631" cy="296" r="20" fill="#ffffff" stroke="#c026d3" stroke-width="2"/><text x="631" y="302" text-anchor="middle" font-family="Arial, sans-serif" font-size="16" font-weight="700" fill="#c026d3">4</text><text x="631" y="334" text-anchor="middle" font-family="Arial, sans-serif" font-size="16" font-weight="700" fill="#0f172a">Tertiary Consumer</text><text x="631" y="366" text-anchor="middle" font-family="Arial, sans-serif" font-size="16" font-weight="500" fill="#1f2937">Snake</text><line x1="706" y1="340" x2="718" y2="340" stroke="#16a34a" stroke-width="5" stroke-linecap="round"/><polygon points="718,340 702,332 702,348" fill="#16a34a"/><rect x="728" y="260" width="150" height="160" rx="20" fill="#fee2e2" stroke="#dc2626" stroke-width="2.5"/><circle cx="803" cy="296" r="20" fill="#ffffff" stroke="#dc2626" stroke-width="2"/><text x="803" y="302" text-anchor="middle" font-family="Arial, sans-serif" font-size="16" font-weight="700" fill="#dc2626">5</text><text x="803" y="334" text-anchor="middle" font-family="Arial, sans-serif" font-size="16" font-weight="700" fill="#0f172a">Top Consumer</text><text x="803" y="366" text-anchor="middle" font-family="Arial, sans-serif" font-size="16" font-weight="500" fill="#1f2937">Eagle</text><line x1="878" y1="340" x2="890" y2="340" stroke="#16a34a" stroke-width="5" stroke-linecap="round"/><polygon points="890,340 874,332 874,348" fill="#16a34a"/><rect x="900" y="260" width="150" height="160" rx="20" fill="#ede9fe" stroke="#7c3aed" stroke-width="2.5"/><circle cx="975" cy="296" r="20" fill="#ffffff" stroke="#7c3aed" stroke-width="2"/><text x="975" y="302" text-anchor="middle" font-family="Arial, sans-serif" font-size="16" font-weight="700" fill="#7c3aed">6</text><text x="975" y="334" text-anchor="middle" font-family="Arial, sans-serif" font-size="16" font-weight="700" fill="#0f172a">Decomposers</text><text x="975" y="366" text-anchor="middle" font-family="Arial, sans-serif" font-size="16" font-weight="500" fill="#1f2937">Fungi and</text><text x="975" y="389" text-anchor="middle" font-family="Arial, sans-serif" font-size="16" font-weight="500" fill="#1f2937">Earthworms</text><text x="550" y="566" text-anchor="middle" font-family="Arial, sans-serif" font-size="18" font-weight="700" fill="#166534">Left to Right Learning Sequence</text><text x="550" y="598" text-anchor="middle" font-family="Arial, sans-serif" font-size="15" fill="#475569">Textbook-style educational poster for students</text></svg>