<svg xmlns="http://www.w3.org/2000/svg" width="1100" height="680" viewBox="0 0 1100 680"><rect width="1100" height="680" rx="30" fill="#f8fafc"/><rect x="34" y="34" width="1032" height="612" rx="24" fill="#ffffff" stroke="#dbeafe" stroke-width="3"/><text x="550" y="86" text-anchor="middle" font-family="Arial, sans-serif" font-size="30" font-weight="700" fill="#1d4ed8">Dr. A.P.J. Abdul Kalam</text><text x="550" y="124" text-anchor="middle" font-family="Arial, sans-serif" font-size="17" fill="#475569">This image explains Dr. A.P.J. Abdul Kalam in a simple visual way.</text><circle cx="550" cy="338" r="74" fill="#eff6ff" stroke="#2563eb" stroke-width="4"/><text x="550" y="326" text-anchor="middle" font-family="Arial, sans-serif" font-size="20" font-weight="700" fill="#1e3a8a">Visual</text><text x="550" y="354" text-anchor="middle" font-family="Arial, sans-serif" font-size="18" font-weight="700" fill="#1e3a8a">Summary</text><rect x="70" y="170" width="360" height="145" rx="18" fill="#e0f2fe" stroke="#0284c7" stroke-width="2.5"/><text x="250" y="208" text-anchor="middle" font-family="Arial, sans-serif" font-size="18" font-weight="700" fill="#0f172a">Topic</text><text x="250" y="246" text-anchor="middle" font-family="Arial, sans-serif" font-size="18" font-weight="500" fill="#1f2937">This image explains Dr. A.P.J.</text><text x="250" y="271" text-anchor="middle" font-family="Arial, sans-serif" font-size="18" font-weight="500" fill="#1f2937">Abdul Kalam in a simple visual</text><text x="250" y="296" text-anchor="middle" font-family="Arial, sans-serif" font-size="18" font-weight="500" fill="#1f2937">way.</text><rect x="560" y="170" width="360" height="145" rx="18" fill="#dcfce7" stroke="#16a34a" stroke-width="2.5"/><text x="740" y="208" text-anchor="middle" font-family="Arial, sans-serif" font-size="18" font-weight="700" fill="#0f172a">Key Idea</text><text x="740" y="246" text-anchor="middle" font-family="Arial, sans-serif" font-size="18" font-weight="500" fill="#1f2937">Dr.</text><rect x="70" y="405" width="360" height="145" rx="18" fill="#fef3c7" stroke="#d97706" stroke-width="2.5"/><text x="250" y="443" text-anchor="middle" font-family="Arial, sans-serif" font-size="18" font-weight="700" fill="#0f172a">Details</text><text x="250" y="481" text-anchor="middle" font-family="Arial, sans-serif" font-size="18" font-weight="500" fill="#1f2937">A.P.J.</text><rect x="560" y="405" width="360" height="145" rx="18" fill="#ede9fe" stroke="#7c3aed" stroke-width="2.5"/><text x="740" y="443" text-anchor="middle" font-family="Arial, sans-serif" font-size="18" font-weight="700" fill="#0f172a">Takeaway</text><text x="740" y="481" text-anchor="middle" font-family="Arial, sans-serif" font-size="18" font-weight="500" fill="#1f2937">Abdul Kalam - Timeline 1.</text><line x1="430" y1="242" x2="486" y2="300" stroke="#2563eb" stroke-width="4" stroke-linecap="round"/><circle cx="486" cy="300" r="6" fill="#2563eb"/><line x1="670" y1="242" x2="614" y2="300" stroke="#2563eb" stroke-width="4" stroke-linecap="round"/><circle cx="614" cy="300" r="6" fill="#2563eb"/><line x1="430" y1="478" x2="486" y2="376" stroke="#2563eb" stroke-width="4" stroke-linecap="round"/><circle cx="486" cy="376" r="6" fill="#2563eb"/><line x1="670" y1="478" x2="614" y2="376" stroke="#2563eb" stroke-width="4" stroke-linecap="round"/><circle cx="614" cy="376" r="6" fill="#2563eb"/></svg>